<svg width="48" height="48" viewBox="0 0 48 48" fill="none" xmlns="http://www.w3.org/2000/svg">
<path d="M26.9992 43.4991H20.9992C20.6014 43.4991 20.2198 43.6571 19.9385 43.9384C19.6572 44.2197 19.4992 44.6012 19.4992 44.9991C19.4992 45.3969 19.6572 45.7784 19.9385 46.0597C20.2198 46.341 20.6014 46.4991 20.9992 46.4991H26.9992C27.397 46.4991 27.7785 46.341 28.0598 46.0597C28.3412 45.7784 28.4992 45.3969 28.4992 44.9991C28.4992 44.6012 28.3412 44.2197 28.0598 43.9384C27.7785 43.6571 27.397 43.4991 26.9992 43.4991Z" />
<path d="M28.4992 38.9991H19.4992C19.1014 38.9991 18.7198 39.1571 18.4385 39.4384C18.1572 39.7197 17.9992 40.1012 17.9992 40.4991C17.9992 40.8969 18.1572 41.2784 18.4385 41.5597C18.7198 41.841 19.1014 41.9991 19.4992 41.9991H28.4992C28.897 41.9991 29.2785 41.841 29.5598 41.5597C29.8412 41.2784 29.9992 40.8969 29.9992 40.4991C29.9992 40.1012 29.8412 39.7197 29.5598 39.4384C29.2785 39.1571 28.897 38.9991 28.4992 38.9991Z" />
<path d="M34.6323 5.87625C31.8133 3.05344 28.037 1.49907 23.9992 1.49907C22.028 1.49437 20.0754 1.87915 18.2534 2.6313C16.4314 3.38346 14.7759 4.48817 13.3821 5.88199C11.9883 7.2758 10.8836 8.93126 10.1314 10.7533C9.37927 12.5753 8.99449 14.5279 8.99919 16.4991C8.99919 20.8697 10.6745 24.9581 13.5929 27.7153L14.0017 28.0988C15.6901 29.6775 17.9992 31.8403 17.9992 33.7491V35.9991C17.9992 36.3969 18.1572 36.7784 18.4385 37.0597C18.7198 37.341 19.1014 37.4991 19.4992 37.4991H21.7492C21.9481 37.4991 22.1389 37.4201 22.2795 37.2794C22.4202 37.1387 22.4992 36.948 22.4992 36.7491V25.7634C22.4992 25.6118 22.4533 25.4637 22.3674 25.3386C22.2816 25.2136 22.1598 25.1175 22.0183 25.0631C21.1521 24.7098 20.3292 24.2584 19.5658 23.7178C19.3942 23.6083 19.2467 23.4649 19.1323 23.2965C19.0179 23.1281 18.939 22.9382 18.9003 22.7384C18.8617 22.5385 18.8641 22.3329 18.9075 22.134C18.9509 21.9351 19.0343 21.7471 19.1526 21.5815C19.271 21.4158 19.4218 21.276 19.596 21.1706C19.7701 21.0651 19.9638 20.9962 20.1655 20.968C20.3671 20.9399 20.5723 20.953 20.7687 21.0067C20.965 21.0604 21.1484 21.1535 21.3076 21.2803C22.0014 21.7716 23.3373 22.4991 23.9992 22.4991C24.6611 22.4991 25.997 21.7697 26.6926 21.2803C27.0165 21.0767 27.406 21.0045 27.7813 21.0786C28.1567 21.1526 28.4896 21.3673 28.7118 21.6787C28.9341 21.9901 29.029 22.3747 28.9771 22.7537C28.9252 23.1328 28.7304 23.4776 28.4326 23.7178C27.669 24.2574 26.8462 24.7078 25.9801 25.0603C25.8386 25.1147 25.7168 25.2108 25.6309 25.3358C25.5451 25.4608 25.4991 25.609 25.4992 25.7606V36.7491C25.4992 36.948 25.5782 37.1387 25.7189 37.2794C25.8595 37.4201 26.0503 37.4991 26.2492 37.4991H28.4992C28.897 37.4991 29.2785 37.341 29.5598 37.0597C29.8412 36.7784 29.9992 36.3969 29.9992 35.9991V33.7491C29.9992 31.8853 32.2829 29.7244 33.9508 28.1456L34.4111 27.7088C37.4129 24.8428 38.9992 20.9625 38.9992 16.4991C39.0091 14.5277 38.6283 12.574 37.8788 10.7507C37.1292 8.92736 36.0258 7.27065 34.6323 5.87625Z" />
</svg>
