<svg width="48" height="48" viewBox="0 0 48 48" fill="none" xmlns="http://www.w3.org/2000/svg">
<path d="M9 19.5H4.5C3.675 19.5 3 18.825 3 18C3 17.175 3.675 16.5 4.5 16.5H9C9.825 16.5 10.5 17.175 10.5 18C10.5 18.825 9.825 19.5 9 19.5Z" />
<path d="M11.6344 13.1344C11.2406 13.1344 10.8563 12.975 10.575 12.6937L7.39688 9.51562C6.81563 8.93438 6.81563 7.97813 7.39688 7.39688C7.97813 6.81563 8.93438 6.81563 9.51562 7.39688L12.6937 10.575C13.2844 11.1562 13.2844 12.1125 12.6937 12.6937C12.4125 12.975 12.0375 13.1344 11.6344 13.1344Z" />
<path d="M18 10.5C17.175 10.5 16.5 9.825 16.5 9V4.5C16.5 3.675 17.175 3 18 3C18.825 3 19.5 3.675 19.5 4.5V9C19.5 9.825 18.825 10.5 18 10.5Z" />
<path d="M24.3656 13.1344C23.5406 13.1344 22.8656 12.4594 22.8656 11.6344C22.8656 11.2406 23.025 10.8563 23.3063 10.575L26.4844 7.39688C27.0656 6.81563 28.0219 6.81563 28.6031 7.39688C29.1844 7.97813 29.1844 8.93438 28.6031 9.51562L25.425 12.6937C25.1438 12.975 24.7594 13.1344 24.3656 13.1344Z" />
<path d="M8.45625 29.0437C7.63125 29.0437 6.95625 28.3687 6.95625 27.5437C6.95625 27.15 7.11563 26.7656 7.39688 26.4844L10.575 23.3063C11.1562 22.725 12.1125 22.725 12.6937 23.3063C13.275 23.8875 13.275 24.8438 12.6937 25.425L9.51562 28.6031C9.23438 28.8844 8.85 29.0437 8.45625 29.0437Z" />
<path d="M21.9562 15.6562C20.2312 13.9031 17.4094 13.875 15.6562 15.5906C13.9031 17.3063 13.875 20.1375 15.5906 21.8906C15.6094 21.9094 15.6375 21.9375 15.6562 21.9562L19.3594 25.6594C19.65 25.95 20.1281 25.95 20.4187 25.6594L25.6594 20.4187C25.95 20.1281 25.95 19.65 25.6594 19.3594L21.9562 15.6562Z" />
<path d="M42.8438 36.5437L28.8375 22.5375C28.5469 22.2469 28.0687 22.2469 27.7781 22.5375L22.5375 27.7781C22.2469 28.0687 22.2469 28.5469 22.5375 28.8375L36.5437 42.8438C38.2687 44.5969 41.0906 44.625 42.8438 42.9094C44.5969 41.1844 44.625 38.3625 42.9094 36.6094C42.8906 36.5906 42.8719 36.5625 42.8438 36.5437Z" />
</svg>
