<svg width="48" height="48" viewBox="0 0 48 48" fill="none" xmlns="http://www.w3.org/2000/svg">
<path d="M32.3569 44.999H25.6875C25.2399 44.999 24.8107 44.8212 24.4943 44.5047C24.1778 44.1883 24 43.759 24 43.3115V40.7137C24.0013 40.3147 23.9212 39.9196 23.7647 39.5526C23.6082 39.1856 23.3785 38.8543 23.0897 38.579C22.3603 37.8674 21.3009 37.4727 20.1937 37.4999C18.1912 37.5468 16.5 39.3093 16.5 41.3493V43.3115C16.5 43.759 16.3222 44.1883 16.0057 44.5047C15.6893 44.8212 15.2601 44.999 14.8125 44.999H8.21438C7.52961 44.999 6.85156 44.8641 6.21892 44.6021C5.58628 44.34 5.01145 43.9559 4.52726 43.4717C3.54937 42.4939 3 41.1676 3 39.7846V33.1865C3 32.7389 3.17779 32.3097 3.49426 31.9932C3.81073 31.6768 4.23995 31.499 4.6875 31.499H7.28531C8.14406 31.499 8.97938 31.1315 9.6375 30.4677C10.0036 30.0987 10.2932 29.6609 10.4895 29.1795C10.6858 28.6981 10.7849 28.1826 10.7812 27.6627C10.7531 25.6762 9.11813 23.999 7.21031 23.999H4.6875C4.23995 23.999 3.81073 23.8212 3.49426 23.5047C3.17779 23.1883 3 22.759 3 22.3115V15.7134C3 15.0286 3.13487 14.3505 3.39692 13.7179C3.65897 13.0853 4.04306 12.5104 4.52726 12.0262C5.50514 11.0484 6.83144 10.499 8.21438 10.499H13.3931C13.592 10.499 13.7828 10.42 13.9235 10.2793C14.0641 10.1387 14.1431 9.94791 14.1431 9.74899V9.14149C14.1431 8.32565 14.3056 7.51798 14.6211 6.76562C14.9366 6.01326 15.3989 5.33127 15.9808 4.75947C16.5627 4.18767 17.2527 3.7375 18.0105 3.43524C18.7683 3.13298 19.5787 2.98468 20.3944 2.99899C23.7216 3.05712 26.4281 5.84712 26.4281 9.21743V9.74899C26.4281 9.94791 26.5071 10.1387 26.6478 10.2793C26.7884 10.42 26.9792 10.499 27.1781 10.499H32.3569C33.0323 10.499 33.7011 10.632 34.3251 10.8905C34.9491 11.149 35.516 11.5278 35.9936 12.0054C36.4712 12.483 36.85 13.0499 37.1085 13.6739C37.367 14.2979 37.5 14.9667 37.5 15.6421V20.8209C37.5 21.0198 37.579 21.2105 37.7197 21.3512C37.8603 21.4918 38.0511 21.5709 38.25 21.5709H38.7806C42.21 21.5709 45 24.2896 45 27.6309C45 31.0631 42.2447 33.8559 38.8575 33.8559H38.25C38.0511 33.8559 37.8603 33.9349 37.7197 34.0755C37.579 34.2162 37.5 34.407 37.5 34.6059V39.8559C37.5 40.5313 37.367 41.2001 37.1085 41.8241C36.85 42.448 36.4712 43.015 35.9936 43.4926C35.516 43.9702 34.9491 44.349 34.3251 44.6075C33.7011 44.866 33.0323 44.999 32.3569 44.999Z" />
</svg>
