<svg width="48" height="48" viewBox="0 0 48 48" fill="none" xmlns="http://www.w3.org/2000/svg">
<path d="M23.9992 30C27.3129 30 29.9992 27.3137 29.9992 24C29.9992 20.6863 27.3129 18 23.9992 18C20.6855 18 17.9992 20.6863 17.9992 24C17.9992 27.3137 20.6855 30 23.9992 30Z" />
<path d="M46.0154 22.3688C43.5348 18.5325 40.3164 15.2738 36.7089 12.9441C32.7179 10.3641 28.3117 9 23.9673 9C19.9811 9 16.0614 10.1391 12.317 12.3853C8.49856 14.6756 5.03918 18.0216 2.0345 22.3294C1.69529 22.8162 1.50848 23.3929 1.4978 23.9862C1.48712 24.5795 1.65304 25.1625 1.9745 25.6613C4.45043 29.5359 7.637 32.7994 11.1882 35.0972C15.1867 37.6875 19.4898 39 23.9673 39C28.3464 39 32.762 37.6472 36.7361 35.0887C40.3417 32.7666 43.5536 29.4956 46.0248 25.6275C46.3352 25.1403 46.4993 24.5744 46.4976 23.9968C46.496 23.4191 46.3286 22.8541 46.0154 22.3688ZM23.9992 33C22.2192 33 20.4791 32.4722 18.9991 31.4832C17.519 30.4943 16.3655 29.0887 15.6843 27.4442C15.0031 25.7996 14.8248 23.99 15.1721 22.2442C15.5194 20.4984 16.3765 18.8947 17.6352 17.636C18.8939 16.3774 20.4975 15.5202 22.2434 15.1729C23.9892 14.8257 25.7988 15.0039 27.4433 15.6851C29.0879 16.3663 30.4935 17.5198 31.4824 18.9999C32.4713 20.4799 32.9992 22.22 32.9992 24C32.9965 26.3861 32.0474 28.6737 30.3601 30.3609C28.6729 32.0482 26.3853 32.9973 23.9992 33Z" />
</svg>
