<svg width="48" height="48" viewBox="0 0 48 48" fill="none" xmlns="http://www.w3.org/2000/svg">
<path d="M23.9995 40.125C19.0917 40.125 13.5567 39.0366 9.1936 37.2188C7.59328 36.5447 6.22266 35.4544 5.10235 34.5938C5.04677 34.5512 4.98042 34.5251 4.91078 34.5184C4.84115 34.5116 4.77101 34.5245 4.70829 34.5555C4.64558 34.5865 4.59279 34.6344 4.5559 34.6939C4.51901 34.7533 4.49949 34.8219 4.49953 34.8919V36.0713C4.49953 38.7028 6.70172 41.0606 10.7002 42.7106C14.2767 44.1872 18.9998 45 23.9995 45C28.9992 45 33.7214 44.1872 37.2989 42.7106C41.2973 41.0625 43.4995 38.7028 43.4995 36.0713V34.8919C43.4996 34.8219 43.4801 34.7533 43.4432 34.6939C43.4063 34.6344 43.3535 34.5865 43.2908 34.5555C43.2281 34.5245 43.1579 34.5116 43.0883 34.5184C43.0187 34.5251 42.9523 34.5512 42.8967 34.5938C41.7764 35.4534 40.4058 36.5447 38.8045 37.2188C34.4414 39.0366 28.9073 40.125 23.9995 40.125Z" />
<path d="M43.4995 11.8603C43.4236 9.26813 41.2327 6.94781 37.312 5.31187C33.7252 3.82125 29.0002 3 23.9995 3C18.9989 3 14.2739 3.82125 10.6955 5.31187C6.7786 6.94406 4.58766 9.25969 4.50797 11.8453L4.49953 13.5C4.49953 14.1009 4.98703 15.045 5.8711 15.8184C6.91453 16.7306 8.46328 17.6306 10.3505 18.4181C14.3658 20.0963 19.4686 21.0938 23.9995 21.0938C28.5305 21.0938 33.6333 20.0925 37.6486 18.4144C39.5358 17.6269 41.0845 16.7269 42.128 15.8147C43.012 15.0459 43.4995 14.1019 43.4995 13.5V11.8603Z" />
<path d="M38.8045 21.1875C34.4423 23.0091 28.9073 24.0938 23.9995 24.0938C19.0917 24.0938 13.5567 23.0091 9.1936 21.1875C7.59328 20.5172 6.22266 19.4259 5.10235 18.5625C5.04652 18.5198 4.97982 18.4936 4.90984 18.487C4.83987 18.4804 4.76944 18.4936 4.7066 18.525C4.64375 18.5565 4.59102 18.605 4.5544 18.665C4.51779 18.725 4.49878 18.7941 4.49953 18.8644V21.75C4.49953 22.3509 4.98703 23.1075 5.8711 23.8809C6.91453 24.7941 8.46328 25.6931 10.3505 26.4816C14.3658 28.1569 19.4686 29.1562 23.9995 29.1562C28.5305 29.1562 33.6333 28.155 37.6486 26.4778C39.5358 25.6894 41.0845 24.7903 42.128 23.8772C43.012 23.1066 43.4995 22.3509 43.4995 21.75V18.8644C43.4996 18.7944 43.4801 18.7258 43.4432 18.6664C43.4063 18.6069 43.3535 18.559 43.2908 18.528C43.2281 18.497 43.1579 18.4841 43.0883 18.4909C43.0187 18.4976 42.9523 18.5237 42.8967 18.5662C41.7764 19.4259 40.4058 20.5172 38.8045 21.1875Z" />
<path d="M38.8045 29.25C34.4414 31.0697 28.9073 32.1562 23.9995 32.1562C19.0917 32.1562 13.5567 31.0697 9.1936 29.25C7.59328 28.5778 6.22266 27.4866 5.10235 26.625C5.04665 26.5824 4.98012 26.5563 4.91031 26.5496C4.84051 26.5429 4.77023 26.5559 4.70745 26.5871C4.64467 26.6184 4.59191 26.6666 4.55516 26.7263C4.5184 26.786 4.49913 26.8549 4.49953 26.925V29.7188C4.49953 30.3197 4.98703 31.0753 5.87016 31.8478C6.9136 32.7609 8.46328 33.66 10.3505 34.4484C14.3658 36.1238 19.4677 37.125 23.9995 37.125C28.5314 37.125 33.6333 36.1237 37.6486 34.4466C39.5358 33.6581 41.0845 32.7591 42.128 31.8459C43.012 31.0725 43.4995 30.3159 43.4995 29.7188V26.925C43.4996 26.855 43.4801 26.7865 43.4432 26.727C43.4063 26.6676 43.3535 26.6196 43.2908 26.5886C43.2281 26.5576 43.1579 26.5447 43.0883 26.5515C43.0186 26.5583 42.9523 26.5844 42.8967 26.6269C41.7764 27.4866 40.4058 28.5778 38.8045 29.25Z" />
</svg>
