<svg width="48" height="48" viewBox="0 0 48 48" fill="none" xmlns="http://www.w3.org/2000/svg">
<path d="M39.9093 11.0865C35.7694 6.97129 30.1922 4.62608 24.3555 4.54606C18.5188 4.46604 12.8795 6.65748 8.62832 10.6576C4.37717 14.6578 1.84698 20.1535 1.57205 25.9842C1.29712 31.815 3.29897 37.5244 7.15488 41.9068L7.17175 41.9255C7.20269 41.9583 7.23175 41.9921 7.2655 42.024C7.33488 42.1027 7.41363 42.1918 7.50644 42.2846C7.87043 42.6715 8.31035 42.979 8.79868 43.1881C9.28701 43.3971 9.81323 43.5031 10.3444 43.4994C10.8756 43.4957 11.4003 43.3824 11.8856 43.1666C12.371 42.9508 12.8066 42.6371 13.1652 42.2452C14.5449 40.7457 16.2206 39.5488 18.0865 38.7301C19.9524 37.9114 21.9679 37.4886 24.0055 37.4886C26.0431 37.4886 28.0586 37.9114 29.9245 38.7301C31.7904 39.5488 33.4661 40.7457 34.8458 42.2452C35.207 42.6392 35.6461 42.9538 36.1353 43.1693C36.6245 43.3847 37.153 43.4962 37.6876 43.4968C38.2221 43.4973 38.7508 43.3868 39.2404 43.1724C39.73 42.9579 40.1698 42.6441 40.5318 42.2508L40.8327 41.9227L40.8496 41.904C44.6488 37.6138 46.6674 32.0354 46.4932 26.3074C46.3189 20.5795 43.9651 15.134 39.9121 11.0827L39.9093 11.0865ZM22.4999 12.0005C22.4999 11.6027 22.6579 11.2212 22.9392 10.9399C23.2205 10.6586 23.6021 10.5005 23.9999 10.5005C24.3977 10.5005 24.7792 10.6586 25.0605 10.9399C25.3418 11.2212 25.4999 11.6027 25.4999 12.0005V15.0005C25.4999 15.3983 25.3418 15.7799 25.0605 16.0612C24.7792 16.3425 24.3977 16.5005 23.9999 16.5005C23.6021 16.5005 23.2205 16.3425 22.9392 16.0612C22.6579 15.7799 22.4999 15.3983 22.4999 15.0005V12.0005ZM11.9999 28.5005H8.99988C8.60205 28.5005 8.22052 28.3425 7.93922 28.0612C7.65791 27.7799 7.49988 27.3983 7.49988 27.0005C7.49988 26.6027 7.65791 26.2212 7.93922 25.9399C8.22052 25.6586 8.60205 25.5005 8.99988 25.5005H11.9999C12.3977 25.5005 12.7792 25.6586 13.0605 25.9399C13.3418 26.2212 13.4999 26.6027 13.4999 27.0005C13.4999 27.3983 13.3418 27.7799 13.0605 28.0612C12.7792 28.3425 12.3977 28.5005 11.9999 28.5005ZM16.5749 19.5755C16.2936 19.8566 15.9122 20.0145 15.5146 20.0145C15.1169 20.0145 14.7355 19.8566 14.4543 19.5755L12.3327 17.4549C12.0514 17.1736 11.8933 16.792 11.8933 16.3941C11.8933 15.9962 12.0514 15.6147 12.3327 15.3333C12.614 15.052 12.9956 14.8939 13.3935 14.8939C13.7913 14.8939 14.1729 15.052 14.4543 15.3333L16.5749 17.4549C16.856 17.7362 17.0139 18.1176 17.0139 18.5152C17.0139 18.9129 16.856 19.2942 16.5749 19.5755ZM30.5718 21.7411L26.1186 28.8193C25.9364 29.0718 25.7149 29.2933 25.4624 29.4755C24.8528 29.9008 24.1002 30.0684 23.3678 29.9422C22.6353 29.8159 21.9823 29.4059 21.5503 28.8011C21.1183 28.1963 20.9422 27.4456 21.0604 26.7118C21.1785 25.978 21.5812 25.3205 22.1811 24.8818L29.2593 20.4286C29.4202 20.3165 29.6116 20.2564 29.8077 20.2564C30.0038 20.2564 30.1952 20.3165 30.3561 20.4286C30.5582 20.5745 30.6943 20.7945 30.7347 21.0404C30.7751 21.2863 30.7165 21.5383 30.5718 21.7411ZM33.5455 19.5755C33.2619 19.845 32.8843 19.9929 32.4931 19.9879C32.102 19.9829 31.7283 19.8253 31.4517 19.5487C31.1751 19.2721 31.0175 18.8984 31.0125 18.5073C31.0075 18.1161 31.1555 17.7385 31.4249 17.4549L33.5455 15.3333C33.8268 15.052 34.2084 14.8939 34.6063 14.8939C35.0042 14.8939 35.3857 15.052 35.6671 15.3333C35.9484 15.6147 36.1065 15.9962 36.1065 16.3941C36.1065 16.792 35.9484 17.1736 35.6671 17.4549L33.5455 19.5755ZM38.9999 28.5005H35.9999C35.6021 28.5005 35.2205 28.3425 34.9392 28.0612C34.6579 27.7799 34.4999 27.3983 34.4999 27.0005C34.4999 26.6027 34.6579 26.2212 34.9392 25.9399C35.2205 25.6586 35.6021 25.5005 35.9999 25.5005H38.9999C39.3977 25.5005 39.7792 25.6586 40.0605 25.9399C40.3418 26.2212 40.4999 26.6027 40.4999 27.0005C40.4999 27.3983 40.3418 27.7799 40.0605 28.0612C39.7792 28.3425 39.3977 28.5005 38.9999 28.5005Z" />
</svg>
