<svg  viewBox="0 0 24 24"  xmlns="http://www.w3.org/2000/svg">
<path d="M15.415 7.34979C15.1256 7.34995 14.8452 7.45046 14.6215 7.6342C14.3979 7.81793 14.2449 8.07353 14.1885 8.35743C14.1322 8.64134 14.1761 8.93599 14.3126 9.19118C14.4492 9.44638 14.67 9.64633 14.9375 9.75697C15.2049 9.86761 15.5025 9.88209 15.7794 9.79794C16.0564 9.7138 16.2956 9.53624 16.4563 9.29551C16.617 9.05478 16.6892 8.76578 16.6607 8.47775C16.6323 8.18971 16.5048 7.92047 16.3 7.71589C16.1839 7.59954 16.046 7.50731 15.8941 7.44448C15.7422 7.38165 15.5794 7.34947 15.415 7.34979Z"/>
<path d="M22.3802 2.34682C22.38 2.34542 22.38 2.344 22.3802 2.3426C22.3406 2.16885 22.2531 2.00962 22.1278 1.8829C22.0025 1.75617 21.8443 1.66699 21.671 1.62542C20.2741 1.28464 18.0766 1.64792 15.6414 2.62292C13.1871 3.60729 10.8874 5.06042 9.33301 6.6176C8.83479 7.11317 8.37194 7.64307 7.94785 8.20338C6.90113 8.15651 5.9791 8.30557 5.20238 8.64448C2.49582 9.83557 1.72285 12.8839 1.51707 14.1354C1.48729 14.3132 1.49895 14.4956 1.55114 14.6681C1.60333 14.8407 1.69464 14.9989 1.81796 15.1305C1.94129 15.262 2.0933 15.3633 2.26217 15.4265C2.43105 15.4897 2.61222 15.5131 2.7916 15.4948H2.79769L5.81269 15.1657C5.81644 15.2042 5.82066 15.2393 5.82394 15.2717C5.86267 15.6391 6.02651 15.982 6.288 16.2429L7.75941 17.7153C8.01997 17.9771 8.36281 18.1412 8.73019 18.1798L8.83097 18.1906L8.50285 21.2018C8.50285 21.2018 8.50285 21.2056 8.50285 21.2079C8.48608 21.3701 8.50334 21.534 8.55352 21.6891C8.6037 21.8442 8.68569 21.9872 8.79427 22.1088C8.90284 22.2305 9.0356 22.3281 9.18406 22.3955C9.33252 22.4629 9.49341 22.4986 9.65644 22.5003C9.72161 22.5003 9.78668 22.495 9.85097 22.4843C11.1096 22.2818 14.1564 21.5182 15.3443 18.7971C15.6803 18.0256 15.8289 17.1073 15.7872 16.0624C16.3501 15.6393 16.8819 15.1764 17.3786 14.6773C18.9457 13.1182 20.4035 10.8373 21.3775 8.41854C22.3474 6.01104 22.7125 3.79714 22.3802 2.34682ZM17.3618 10.5443C16.9766 10.9299 16.4857 11.1925 15.9513 11.2991C15.4168 11.4056 14.8628 11.3512 14.3592 11.1428C13.8557 10.9344 13.4252 10.5813 13.1224 10.1282C12.8196 9.67508 12.6579 9.14235 12.6579 8.59737C12.6579 8.05239 12.8196 7.51966 13.1224 7.06656C13.4252 6.61347 13.8557 6.26037 14.3592 6.05195C14.8628 5.84353 15.4168 5.78914 15.9513 5.89567C16.4857 6.0022 16.9766 6.26486 17.3618 6.65042C17.6199 6.9047 17.8249 7.20778 17.9649 7.54203C18.1048 7.87627 18.1769 8.23501 18.1769 8.59737C18.1769 8.95973 18.1048 9.31847 17.9649 9.65271C17.8249 9.98696 17.6199 10.29 17.3618 10.5443Z" />
<path d="M7.59066 18.1146C7.40928 18.0921 7.22592 18.1366 7.07504 18.2398C6.77551 18.4446 6.47457 18.6471 6.17082 18.8445C5.55629 19.2439 4.82129 18.5426 5.18644 17.907L5.75597 16.9226C5.8374 16.8035 5.88274 16.6634 5.88655 16.5192C5.89037 16.375 5.85251 16.2327 5.7775 16.1094C5.70249 15.9862 5.59352 15.8872 5.46366 15.8243C5.3338 15.7614 5.18855 15.7374 5.04535 15.7549C4.41324 15.8349 3.82568 16.1228 3.37519 16.5734C3.20363 16.7454 2.68191 17.2676 2.40113 19.2574C2.32121 19.829 2.27083 20.4043 2.25019 20.981C2.24763 21.0811 2.26513 21.1807 2.30167 21.274C2.33821 21.3672 2.39305 21.4521 2.46295 21.5238C2.53285 21.5955 2.6164 21.6525 2.70867 21.6914C2.80094 21.7303 2.90006 21.7503 3.00019 21.7503H3.01894C3.59613 21.7298 4.17189 21.6798 4.74394 21.6003C6.73472 21.319 7.25691 20.7968 7.42847 20.6253C7.88114 20.1746 8.16837 19.5843 8.24363 18.9499C8.26773 18.7526 8.21249 18.5538 8.09005 18.3971C7.96761 18.2405 7.78799 18.1389 7.59066 18.1146Z" />
</svg>
