<svg width="186" height="44" viewBox="0 0 186 44" fill="none" xmlns="http://www.w3.org/2000/svg">
<g clip-path="url(#clip0_2184_517)">
<path fill-rule="evenodd" clip-rule="evenodd" d="M43.6699 21.8336C43.6699 22.9795 42.7418 23.9077 41.5959 23.9077C40.45 23.9077 39.5218 22.9795 39.5218 21.8336C39.5218 21.0681 39.4714 20.2981 39.3683 19.5258C39.2697 18.7855 39.1184 18.0292 38.9122 17.2615C37.6494 12.545 34.5922 8.78645 30.6755 6.52446C30.6434 6.50612 30.609 6.4855 30.577 6.46487C26.6809 4.25101 21.9392 3.50847 17.2594 4.76207C12.5429 6.02714 8.78437 9.08209 6.52238 12.9988C6.50404 13.0308 6.48342 13.0652 6.46279 13.0973C4.24892 16.9933 3.50639 21.735 4.75999 26.4149C5.78442 30.2399 8.0235 33.4919 10.9959 35.7997C13.973 38.1099 17.6742 39.4735 21.6252 39.5193C22.7711 39.5285 23.6924 40.4635 23.6833 41.6094C23.6741 42.7553 22.7391 43.6743 21.5932 43.6674C16.6864 43.6124 12.1075 41.9325 8.44289 39.0862C4.77374 36.2375 2.01214 32.22 0.744783 27.4897C-0.797589 21.719 0.123709 15.8658 2.86469 11.0484C2.88531 11.0049 2.90823 10.9636 2.93344 10.9201C5.72713 6.08214 10.3657 2.30757 16.1891 0.746865C21.9598 -0.797799 27.8131 0.123499 32.6304 2.86448C32.6739 2.8851 32.7152 2.90802 32.7587 2.93323C37.599 5.72692 41.3713 10.3678 42.932 16.1912C43.1726 17.0896 43.3583 18.0246 43.4843 18.9918C43.6081 19.9268 43.6699 20.8756 43.6699 21.8359V21.8336ZM18.2517 21.1025L18.2976 21.0979H18.3297L18.3434 21.0956H18.3892L18.3938 21.0933C18.4397 21.091 18.4855 21.0888 18.5313 21.0865H18.5795L18.6184 21.0819H18.6734H18.7513H18.788H18.9507H18.9851H19.047H19.0653H19.1157H19.1341L19.212 21.0865H19.2303L19.2945 21.091L19.3541 21.0956H19.3908L19.4572 21.1048H19.4687L19.5191 21.1117H19.5306L19.5466 21.114L19.6222 21.1231H19.636L19.6451 21.1254L19.7345 21.1369H19.7483L19.8331 21.1529L19.8606 21.1575L19.9408 21.1713H19.9568C19.9843 21.1804 20.0118 21.185 20.0393 21.1919L20.0645 21.1965L20.1448 21.2148L20.1723 21.2217L20.2502 21.24L20.2731 21.2469L20.3533 21.2675L20.3808 21.2744L20.4633 21.2996L20.4794 21.3042C20.5069 21.3134 20.5344 21.3225 20.5619 21.3317L20.5825 21.3386C20.61 21.3477 20.6398 21.3592 20.6673 21.3684L20.681 21.3729C20.7108 21.3844 20.7406 21.3959 20.7704 21.4073L20.7819 21.4119C20.8117 21.4234 20.8415 21.4348 20.8712 21.4486L20.8804 21.4532L20.8919 21.4577C20.9217 21.4692 20.9492 21.4829 20.9767 21.4967H20.9813L20.9904 21.5036C21.0202 21.5173 21.05 21.5311 21.0798 21.5448H21.0844C21.1165 21.5632 21.1463 21.5792 21.1783 21.5952H21.1829L21.1875 21.5998C21.2196 21.6159 21.2517 21.6342 21.2815 21.6525C21.3136 21.6709 21.3456 21.6915 21.3777 21.7098L21.3869 21.7007C21.3571 21.6342 21.3296 21.5677 21.3067 21.5013L21.3021 21.4875C21.2906 21.4554 21.2792 21.4234 21.2677 21.3913L21.2631 21.3821C21.254 21.3523 21.2425 21.3202 21.2334 21.2904L21.2288 21.2744C21.2196 21.2446 21.2104 21.2148 21.2036 21.1873L21.1967 21.1667C21.1875 21.1369 21.1806 21.1071 21.1738 21.0796L21.1692 21.0613C21.1623 21.0315 21.1554 20.9994 21.1463 20.9696V20.9581C21.1371 20.926 21.1302 20.894 21.1233 20.8596V20.8504C21.1142 20.816 21.1096 20.7839 21.1027 20.7496V20.7427C21.089 20.6739 21.0798 20.6029 21.0706 20.5341C21.066 20.4975 21.0615 20.4631 21.0592 20.4287V20.4241C21.0546 20.3898 21.0523 20.3577 21.05 20.3233V20.3141L21.0431 20.2179V20.2133C21.0431 20.1789 21.0385 20.1468 21.0385 20.1125V20.0139L21.0363 19.9864V19.9062V19.8833V19.8031V19.771V19.6908L21.0385 19.6747L21.0431 19.5945V19.5808V19.5647L21.0477 19.496V19.4593L21.0569 19.3791V19.3676L21.066 19.292V19.2737V19.2507L21.0752 19.1866V19.1728L21.0775 19.1659L21.0844 19.1132L21.089 19.072V19.0628L21.1027 18.9849V18.9757L21.1073 18.962L21.1165 18.9116V18.9047L21.1233 18.868V18.8634L21.1325 18.813L21.1394 18.7672V18.7626L21.1486 18.7145L21.1554 18.6778V18.6663L21.1669 18.6182L21.1738 18.5838V18.5701L21.1875 18.522V18.5082L21.1967 18.4738L21.2081 18.4257V18.4165L21.2196 18.3799V18.373C21.4419 17.4448 21.7742 16.7917 21.7742 16.7917C19.5168 17.6832 17.7086 17.0071 17.0348 16.6725L16.7896 16.496L16.9546 16.7435C17.1952 17.454 17.6284 19.3355 16.4458 21.4577C16.4458 21.4577 17.2113 21.1873 18.238 21.1025H18.2517ZM23.1974 20.227L43.4155 40.4452C44.2291 41.2588 44.2291 42.5765 43.4155 43.3878C42.602 44.2014 41.2842 44.2014 40.4729 43.3878L20.5137 23.4287C16.9363 22.8695 13.4825 24.0864 13.4825 24.0864C15.9852 19.5968 15.0684 15.6114 14.5597 14.1057L14.2113 13.5832L14.7316 13.9544C16.1548 14.658 19.9866 16.0927 24.7673 14.2042C24.7673 14.2042 23.3624 16.9635 23.1997 20.2248L23.1974 20.227ZM18.1738 31.1451C17.3602 30.3315 17.3602 29.0138 18.1738 28.2025C18.9874 27.3912 20.3052 27.3889 21.1165 28.2025L33.3454 40.4314C34.159 41.245 34.159 42.5628 33.3454 43.3741C32.5319 44.1854 31.2141 44.1877 30.4028 43.3741L18.1738 31.1451ZM28.4158 21.3271C27.6022 20.5135 27.6022 19.1957 28.4158 18.3844C29.2294 17.5709 30.5472 17.5709 31.3585 18.3844L43.5874 30.6134C44.401 31.427 44.401 32.7448 43.5874 33.5561C42.7738 34.3697 41.4561 34.3697 40.6448 33.5561L28.4158 21.3271Z" fill="white"/>
<path d="M68.4556 8.83984V18.0001C67.3281 16.8726 65.8246 16.0521 63.911 16.0521C59.4329 16.0521 56.63 20.0513 56.63 25.6226C56.63 31.1939 58.9882 35.1587 63.5008 35.1587C65.8246 35.1587 67.5687 33.9968 68.6619 32.3559L68.969 34.6454H72.8306V9.32112L68.4556 8.84214V8.83984ZM64.7292 31.8448C62.5749 31.8448 61.2434 30.2383 61.2434 25.5905C61.2434 21.2499 62.7468 19.3362 65.0019 19.3362C66.4709 19.3362 67.4977 20.0879 68.4533 21.2499V29.5209C67.4289 31.0587 66.3334 31.8448 64.7269 31.8448H64.7292ZM92.9273 25.1803C92.9273 19.4714 90.0213 16.0544 84.9634 16.0544C79.9054 16.0544 76.9306 20.2254 76.9306 25.728C76.9306 31.2306 79.9375 35.161 85.5432 35.161C88.2773 35.161 90.4659 34.1687 92.2421 32.734L90.4316 30.2382C88.8594 31.3314 87.5256 31.8448 85.919 31.8448C83.5264 31.8448 81.7824 30.6485 81.4753 26.9564H92.8219C92.8563 26.4774 92.925 25.7601 92.925 25.178L92.9273 25.1803ZM88.5867 24.1192H81.4775C81.7159 20.5302 83.0153 19.162 85.0665 19.162C87.5279 19.162 88.5867 20.9405 88.5867 23.9129V24.1192ZM111.179 16.5655H106.667L102.702 31.1252L98.8401 16.5655H94.0892L100.071 34.6454H105.301L111.179 16.5655ZM120.816 10.5174C116.168 10.5174 112.783 13.114 112.783 17.0444C112.783 20.6334 114.935 22.6158 119.892 24.1536C123.585 25.2811 124.575 26.1703 124.575 28.1527C124.575 30.4422 122.764 31.6729 120.234 31.6729C117.704 31.6729 115.893 30.7837 114.149 29.3147L111.825 31.9113C113.776 33.8249 116.576 35.1587 120.337 35.1587C125.977 35.1587 129.291 32.1519 129.291 27.9121C129.291 23.6723 126.419 21.7586 122.285 20.4615C118.355 19.2308 117.431 18.4791 117.431 16.7694C117.431 14.9245 118.969 13.9666 121.089 13.9666C123.039 13.9666 124.678 14.5808 126.387 15.9833L128.61 13.4188C126.559 11.5396 124.27 10.5151 120.816 10.5151V10.5174ZM146.862 11.0285H133.157V34.6476H147V31.265H137.668V24.3277H145.256V20.9771H137.668V14.3814H146.383L146.862 11.0308V11.0285ZM163.78 34.6476H168.565L161.25 11.0285H155.679L148.331 34.6476H153.013L154.482 29.1794H162.309L163.778 34.6476H163.78ZM155.374 25.7601L158.381 14.4799L161.388 25.7601H155.374ZM175.709 11.0285H171.199V34.6476H184.665L185.176 30.9556H175.709V11.0285Z" fill="white"/>
</g>
<defs>
<clipPath id="clip0_2184_517">
<rect width="185.176" height="44" fill="white"/>
</clipPath>
</defs>
</svg>
