<?xml version="1.0" encoding="utf-8"?>
<!-- Generator: Adobe Illustrator 27.0.0, SVG Export Plug-In . SVG Version: 6.00 Build 0)  -->
<svg version="1.1" id="Layer_1" xmlns="http://www.w3.org/2000/svg" xmlns:xlink="http://www.w3.org/1999/xlink" x="0px" y="0px"
	 viewBox="0 0 182 44" style="enable-background:new 0 0 182 44;" xml:space="preserve">
<style type="text/css">
	.st0{fill-rule:evenodd;clip-rule:evenodd;fill:url(#SVGID_1_);}
	.st1{fill:#FFFFFF;}
</style>
<linearGradient id="SVGID_1_" gradientUnits="userSpaceOnUse" x1="21.9917" y1="7.6479" x2="20.9356" y2="47.2795" gradientTransform="matrix(1 0 0 -1 0 46)">
	<stop  offset="0" style="stop-color:#0145FE"/>
	<stop  offset="1" style="stop-color:#006FFF"/>
</linearGradient>
<path class="st0" d="M42.8,21.4c0,1.1-0.9,2-2,2c-1.1,0-2-0.9-2-2c0-0.8-0.1-1.5-0.2-2.3c-0.1-0.7-0.2-1.5-0.4-2.2
	c-1.2-4.6-4.2-8.3-8.1-10.5c0,0-0.1,0-0.1-0.1c-3.8-2.2-8.5-2.9-13.1-1.7c-4.6,1.2-8.3,4.2-10.5,8.1c0,0,0,0.1-0.1,0.1
	c-2.2,3.8-2.9,8.5-1.7,13.1c1,3.8,3.2,6.9,6.1,9.2c2.9,2.3,6.6,3.6,10.4,3.6c1.1,0,2,0.9,2,2.1c0,1.1-0.9,2-2,2
	c-4.8-0.1-9.3-1.7-12.9-4.5C4.7,35.5,2,31.6,0.7,27c-1.5-5.7-0.6-11.4,2.1-16.1c0,0,0-0.1,0.1-0.1c2.7-4.7,7.3-8.4,13-10
	C21.5-0.8,27.3,0.1,32,2.8c0,0,0.1,0,0.1,0.1c4.7,2.7,8.4,7.3,10,13c0.2,0.9,0.4,1.8,0.5,2.7C42.8,19.5,42.8,20.5,42.8,21.4
	L42.8,21.4z M17.9,20.7L17.9,20.7L17.9,20.7L17.9,20.7l0.1,0h0c0,0,0.1,0,0.1,0l0,0l0,0h0l0,0h0l0.1,0l0,0h0h0h0l0.1,0l0,0l0.1,0
	l0,0l0,0h0l0,0l0.1,0h0h0l0,0l0.1,0l0.1,0l0,0l0.1,0l0,0l0,0l0,0l0,0l0.1,0l0,0l0,0l0.1,0l0,0l0.1,0l0,0l0.1,0l0,0c0,0,0.1,0,0.1,0
	l0,0l0.1,0l0,0l0.1,0l0,0l0.1,0l0,0l0.1,0l0,0c0,0,0.1,0,0.1,0l0,0c0,0,0.1,0,0.1,0l0,0c0,0,0.1,0,0.1,0l0,0c0,0,0.1,0,0.1,0l0,0
	l0,0c0,0,0.1,0,0.1,0l0,0l0,0c0,0,0.1,0,0.1,0l0,0c0,0,0.1,0,0.1,0l0,0l0,0c0,0,0.1,0,0.1,0.1l0,0c0,0,0.1,0,0.1,0.1l0,0
	c0-0.1-0.1-0.1-0.1-0.2l0,0c0,0,0-0.1,0-0.1l0,0c0,0,0-0.1,0-0.1l0,0c0,0,0-0.1,0-0.1l0,0c0,0,0-0.1,0-0.1l0,0c0,0,0-0.1,0-0.1l0,0
	c0,0,0-0.1,0-0.1l0,0c0,0,0-0.1,0-0.1l0,0c0-0.1,0-0.1,0-0.2v0c0,0,0-0.1,0-0.1v0l0,0c0,0,0-0.1,0-0.1v0l0,0l0-0.1v0
	c0,0,0-0.1,0-0.1v0l0-0.1l0,0l0-0.1v0l0-0.1l0,0l0-0.1l0,0l0-0.1l0,0l0,0l0-0.1l0,0l0-0.1v0l0,0l0-0.1l0,0v0l0,0l0-0.1l0,0l0,0
	l0-0.1l0,0l0,0l0-0.1l0,0l0,0l0,0l0,0l0,0l0,0l0,0l0,0l0,0l0,0l0,0l0,0l0,0l0,0l0,0l0,0l0,0l0,0l0,0l0,0l0,0l0,0l0,0
	c0.2-0.9,0.5-1.6,0.5-1.6c-2.2,0.9-4,0.2-4.6-0.1l-0.2-0.2l0.2,0.2c0.2,0.7,0.7,2.5-0.5,4.6C16.1,21,16.9,20.8,17.9,20.7L17.9,20.7z
	 M22.8,19.8l19.8,19.8c0.8,0.8,0.8,2.1,0,2.9c-0.8,0.8-2.1,0.8-2.9,0L20.1,23c-3.5-0.5-6.9,0.6-6.9,0.6c2.5-4.4,1.6-8.3,1.1-9.8
	l-0.3-0.5l0.5,0.4c1.4,0.7,5.2,2.1,9.8,0.2C24.3,13.9,22.9,16.6,22.8,19.8L22.8,19.8z M17.8,30.6c-0.8-0.8-0.8-2.1,0-2.9
	c0.8-0.8,2.1-0.8,2.9,0l12,12c0.8,0.8,0.8,2.1,0,2.9s-2.1,0.8-2.9,0L17.8,30.6L17.8,30.6z M27.9,20.9c-0.8-0.8-0.8-2.1,0-2.9
	c0.8-0.8,2.1-0.8,2.9,0l12,12c0.8,0.8,0.8,2.1,0,2.9c-0.8,0.8-2.1,0.8-2.9,0L27.9,20.9z"/>
<path class="st1" d="M67.1,8.7v9c-1.1-1.1-2.6-1.9-4.5-1.9c-4.4,0-7.1,3.9-7.1,9.4c0,5.6,2.3,9.4,6.7,9.4c2.3,0,4-1.1,5.1-2.7
	l0.3,2.2h3.8V9.1L67.1,8.7L67.1,8.7z M63.5,31.2c-2.1,0-3.4-1.6-3.4-6.1c0-4.3,1.5-6.1,3.7-6.1c1.4,0,2.4,0.7,3.4,1.9V29
	C66.1,30.5,65.1,31.2,63.5,31.2z M91.2,24.7c0-5.6-2.8-9-7.8-9c-5,0-7.9,4.1-7.9,9.5c0,5.6,3,9.3,8.4,9.3c2.7,0,4.8-1,6.6-2.4
	l-1.8-2.4c-1.5,1.1-2.8,1.6-4.4,1.6c-2.3,0-4.1-1.2-4.4-4.8h11.1C91.1,26,91.2,25.3,91.2,24.7L91.2,24.7z M86.9,23.7h-7
	c0.2-3.5,1.5-4.9,3.5-4.9c2.4,0,3.5,1.7,3.5,4.7V23.7L86.9,23.7z M109.1,16.2h-4.4l-3.9,14.3L97,16.2h-4.7L98.2,34h5.1L109.1,16.2
	L109.1,16.2z M118.5,10.3c-4.6,0-7.9,2.5-7.9,6.4c0,3.5,2.1,5.5,7,7c3.6,1.1,4.6,2,4.6,3.9c0,2.2-1.8,3.5-4.3,3.5
	c-2.4,0-4.3-0.9-6-2.3l-2.3,2.5c1.9,1.9,4.7,3.2,8.3,3.2c5.5,0,8.8-3,8.8-7.1c0-4.4-2.8-6-6.9-7.3c-3.9-1.2-4.8-1.9-4.8-3.6
	c0-1.8,1.5-2.7,3.6-2.7c1.9,0,3.5,0.6,5.2,2l2.2-2.5C124.1,11.3,121.9,10.3,118.5,10.3L118.5,10.3z M144.1,10.8h-13.4V34h13.6v-3.3
	H135v-6.8h7.4v-3.3H135v-6.5h8.6L144.1,10.8L144.1,10.8z M160.7,34h4.7l-7.2-23.2h-5.5L145.5,34h4.6l1.4-5.4h7.7L160.7,34z
	 M152.4,25.3l2.9-11.1l3,11.1H152.4z M172.4,10.8h-4.4V34h13.2l0.5-3.6h-9.3L172.4,10.8L172.4,10.8z"/>
</svg>
